<svg width="84" height="84" viewBox="0 0 84 84" fill="none" xmlns="http://www.w3.org/2000/svg">
<g clip-path="url(#clip0_13_456)">
<path d="M18.75 63.3071C18.75 63.3071 5.22681 58.0248 5.22681 43.5409C5.22681 33.1698 13.7038 19.0142 34.3451 22.1748C48.9021 24.4038 45.5519 32.5966 66.2592 35.761C78.9782 37.7047 81.8579 61.2511 63.2636 63.3073L41.9999 66.3974L18.75 63.3071Z" fill="#DC8758"/>
<path d="M66.2593 35.7609C45.552 32.5964 48.9022 24.4038 34.3452 22.1747C31.1045 21.6784 28.164 21.6095 25.5087 21.8853C25.7905 21.9119 26.0744 21.9411 26.3611 21.9744C26.8495 22.0318 27.3465 22.0977 27.8502 22.1755C42.4073 24.4031 39.0574 32.5969 59.7634 35.7609C72.4834 37.7045 75.3635 61.2516 56.7685 63.3068L59.4978 63.8543L63.2637 63.307C81.8581 61.2509 78.9784 37.7045 66.2593 35.7609Z" fill="#D37546"/>
<path d="M59.1849 57.2112L48.8724 62.3539C43.9469 64.8101 37.9883 62.3285 36.2626 57.1021C34.5368 51.8757 37.8459 46.3339 43.2654 45.3741L55.0361 44.1112C57.0319 43.7578 58.9842 44.9236 59.6198 46.848L61.2373 52.2829C61.8731 54.2076 60.9988 56.3067 59.1849 57.2112Z" fill="#D37546"/>
<path d="M30.705 26.499C30.6594 26.499 30.612 26.499 30.5647 26.4956C30.5208 26.494 30.4751 26.4922 30.4312 26.4922C29.3157 26.4922 28.3287 27.2426 28.038 28.331C27.9399 28.7011 27.8247 29.0468 27.5999 29.3137V39.0165C27.5999 39.8785 26.6267 40.4084 25.8645 40.0094L22.523 38.2602L19.1816 40.0094C18.4193 40.4083 17.505 39.8557 17.505 38.9937V29.2909C17.505 27.2485 14.6441 26.0429 13.6633 26.4041C18.0999 22.9968 24.4058 20.9923 32.8583 21.9742C32.8481 22.0621 32.8431 22.1517 32.8431 22.2413C32.8431 22.5387 32.8954 22.8413 33.0088 23.132C33.6373 24.7649 32.4255 26.499 30.705 26.499Z" fill="#D37546"/>
<path d="M64.9072 47.0269L78.7553 42.4541C79.9511 42.0592 81.2408 42.7086 81.6357 43.9044C82.0306 45.1003 81.3812 46.39 80.1854 46.7849L66.3374 51.3576L64.9072 49.6466V47.0269Z" fill="#FFE5C2"/>
<path d="M81.6357 43.9044C81.2408 42.7086 79.9513 42.0592 78.7553 42.4541L77.1547 42.9826C77.4113 43.2308 77.6141 43.542 77.7337 43.9044C78.1286 45.1003 77.4792 46.39 76.2834 46.7849L65.9537 50.1959L65.8295 50.7501L66.3372 51.3576L80.1853 46.7849C81.3813 46.39 82.0306 45.1004 81.6357 43.9044Z" fill="#FED2A4"/>
<path d="M64.5903 57.2112L54.2778 62.3539C49.3523 64.8101 43.3937 62.3285 41.668 57.1021C39.9422 51.8757 43.2513 46.3339 48.6708 45.3741L60.0179 43.3645C62.0135 43.0111 63.966 44.1769 64.6016 46.1014L66.6427 52.2828C67.2783 54.2076 66.404 56.3067 64.5903 57.2112Z" fill="#DC8758"/>
<path d="M66.6429 52.2829L64.6017 46.1016C63.9661 44.1769 62.0137 43.0111 60.0179 43.3647L56.0711 44.0636C57.6736 44.1907 59.0956 45.2597 59.6201 46.848L61.2376 52.2829C61.8731 54.2076 60.9989 56.3067 59.185 57.2112L48.8725 62.3539C48.4376 62.5708 47.9943 62.7472 47.5469 62.8886C49.6854 63.5603 52.0837 63.448 54.2777 62.3539L64.5902 57.2112C66.4041 56.3067 67.2783 54.2076 66.6429 52.2829Z" fill="#D37546"/>
<path d="M20.488 63.3074L13.4147 64.0528L12.3889 64.1609L11.3646 64.0528L4.29138 63.3074C4.29138 60.9176 5.32744 58.7695 6.97364 57.2872C7.60233 56.721 8.31895 56.2528 9.10153 55.9063C10.1072 55.4567 11.2193 55.2082 12.3905 55.2082C13.5617 55.2082 14.6739 55.4566 15.6795 55.9063C16.462 56.2528 17.1769 56.7208 17.8057 57.2854C19.4519 58.7677 20.488 60.9176 20.488 63.3074Z" fill="#FEE45A"/>
<path d="M12.3905 55.2077C11.7044 55.2077 11.0385 55.2938 10.4022 55.4544C13.9132 56.341 16.5121 59.5207 16.5121 63.3068L17.3017 63.6428L20.488 63.3068C20.488 58.8348 16.8625 55.2077 12.3905 55.2077Z" fill="#FCDA32"/>
<path d="M17.8057 57.2854L15.9026 60.2195L13.4536 63.997C13.4418 64.0155 13.4283 64.0342 13.4147 64.0528C13.1763 64.3789 12.7979 64.575 12.3905 64.575C11.9815 64.575 11.6028 64.3789 11.3646 64.0528C11.3511 64.0342 11.3375 64.0155 11.3257 63.997L6.97363 57.2872C7.60232 56.721 8.31895 56.2528 9.10152 55.9063L12.3905 60.9784L14.4103 57.8652L15.6796 55.9063C16.462 56.2528 17.1768 56.721 17.8057 57.2854Z" fill="#FCDA32"/>
<path d="M17.8058 57.2854L15.9026 60.2195C15.5427 59.3473 15.0356 58.5529 14.4102 57.8652L15.6795 55.9063C16.4621 56.2528 17.1769 56.721 17.8058 57.2854Z" fill="#FAC600"/>
<path d="M29.8422 40.0093L27.3636 38.7114C26.8209 38.4272 26.1733 38.4272 25.6306 38.7114L23.1519 40.0093C22.388 40.4093 21.4724 39.8552 21.4724 38.9929V26.3268H31.5216V38.9929C31.5216 39.8552 30.6061 40.4093 29.8422 40.0093Z" fill="#DEECF1"/>
<path d="M27.5997 26.3268V38.8351L29.8421 40.0093C30.606 40.4093 31.5216 39.8552 31.5216 38.9929V26.3268H27.5997Z" fill="#CBE5E8"/>
<path d="M28.0603 6.55167C29.456 5.41783 31.5566 6.10033 32.0191 7.83792C32.321 8.97192 33.3767 9.73891 34.5485 9.67558C36.344 9.57862 37.6422 11.3656 36.9951 13.0431C36.5728 14.1381 36.9761 15.3791 37.9613 16.0166C39.4708 16.9936 39.4708 19.2022 37.9613 20.1792C36.9761 20.8167 36.5728 22.0577 36.9951 23.1527C37.6422 24.8304 36.344 26.6173 34.5485 26.5202C33.3767 26.4569 32.321 27.2239 32.0191 28.3579C31.5565 30.0955 29.4558 30.778 28.0603 29.6441C27.1494 28.9042 25.8446 28.9042 24.9339 29.6441C23.5382 30.778 21.4376 30.0955 20.9751 28.3579C20.6732 27.2239 19.6175 26.4569 18.4457 26.5202C16.6502 26.6172 15.352 24.8302 15.9991 23.1527C16.4214 22.0577 16.0181 20.8167 15.0329 20.1792C13.5234 19.2022 13.5234 16.9936 15.0329 16.0166C16.0181 15.3791 16.4214 14.1381 15.9991 13.0431C15.352 11.3654 16.6502 9.57846 18.4457 9.67558C19.6175 9.73891 20.6732 8.97192 20.9751 7.83792C21.4377 6.10033 23.5384 5.41783 24.9339 6.55167C25.8446 7.29175 27.1494 7.29175 28.0603 6.55167Z" fill="#582FFB"/>
<path d="M37.9612 16.0168C36.9761 15.3792 36.5728 14.1382 36.9951 13.0433C37.6421 11.3656 36.3439 9.57863 34.5484 9.67575C33.3767 9.73908 32.3209 8.97209 32.0191 7.83809C31.5564 6.1005 29.4558 5.418 28.0602 6.55184C27.9103 6.67373 27.749 6.77348 27.5812 6.85519C27.8155 7.12671 27.9959 7.45713 28.0973 7.83825C28.3992 8.97225 29.4549 9.73924 30.6267 9.67591C32.4222 9.57895 33.7204 11.3659 33.0733 13.0435C32.651 14.1384 33.0543 15.3794 34.0395 16.0169C35.5492 16.9939 35.5492 19.2025 34.0395 20.1795C33.0543 20.8171 32.651 22.058 33.0733 23.153C33.7204 24.8307 32.4222 26.6177 30.6267 26.5205C29.4549 26.4572 28.3992 27.2242 28.0973 28.3582C27.9958 28.7393 27.8155 29.0696 27.5812 29.3413C27.749 29.423 27.9103 29.5227 28.0602 29.6446C29.4559 30.7785 31.5564 30.096 32.0191 28.3584C32.3209 27.2244 33.3767 26.4574 34.5484 26.5207C36.3439 26.6177 37.6423 24.8307 36.9951 23.1532C36.5728 22.0582 36.9761 20.8172 37.9612 20.1797C39.4709 19.2025 39.4709 16.9938 37.9612 16.0168Z" fill="#2901CB"/>
<path d="M27.0531 14.955L26.9112 15.0189C26.6479 15.1377 26.3461 15.1377 26.0828 15.0189L24.7086 14.3994C23.6877 13.9391 22.4835 14.2721 21.8441 15.1917C21.2528 16.042 21.2953 17.181 21.9483 17.9849L24.1515 20.6973L27.0454 21.3255L29.2107 15.4722L27.0531 14.955Z" fill="#DFB613"/>
<path d="M31.1499 15.1917C30.5105 14.2721 29.3063 13.9391 28.2853 14.3994L27.0532 14.955C27.1141 15.0335 27.1732 15.1126 27.2281 15.1917C27.8194 16.042 27.7769 17.181 27.1239 17.9849L25.3968 20.129C25.0771 20.5227 24.6118 20.7111 24.1516 20.6975L25.2978 22.1084C25.9161 22.8697 27.078 22.8697 27.6962 22.1084L31.0455 17.985C31.6985 17.181 31.741 16.042 31.1499 15.1917Z" fill="#DFB613"/>
<path d="M36.6847 63.3071L29.6115 64.0524L28.5856 64.1606L27.5614 64.0524L20.4882 63.3071C20.4882 60.9172 21.5242 58.7691 23.1704 57.2868C23.7991 56.7206 24.5157 56.2524 25.2983 55.9059C26.304 55.4564 27.416 55.2078 28.5873 55.2078C29.7585 55.2078 30.8707 55.4562 31.8762 55.9059C32.6588 56.2524 33.3736 56.7205 34.0025 57.285C35.6487 58.7673 36.6847 60.9172 36.6847 63.3071Z" fill="#FEE45A"/>
<path d="M28.5873 55.2077C27.9012 55.2077 27.2352 55.2938 26.599 55.4544C30.1099 56.341 32.7089 59.5207 32.7089 63.3068L33.4985 63.6428L36.6847 63.3068C36.6847 58.8348 33.0595 55.2077 28.5873 55.2077Z" fill="#FCDA32"/>
<path d="M34.0025 57.2854L32.0993 60.2195L29.6504 63.997C29.6386 64.0155 29.6251 64.0342 29.6115 64.0528C29.3731 64.3789 28.9946 64.575 28.5873 64.575C28.1783 64.575 27.7996 64.3789 27.5614 64.0528C27.5479 64.0342 27.5343 64.0155 27.5225 63.997L23.1704 57.2872C23.7991 56.721 24.5157 56.2528 25.2983 55.9063L28.5873 60.9784L30.607 57.8652L31.8764 55.9063C32.6588 56.2528 33.3738 56.721 34.0025 57.2854Z" fill="#FCDA32"/>
<path d="M34.0025 57.2854L32.0994 60.2195C31.7395 59.3473 31.2323 58.5529 30.6069 57.8652L31.8763 55.9063C32.6589 56.2528 33.3738 56.721 34.0025 57.2854Z" fill="#FAC600"/>
<path d="M84 65.0787V67.4212C84 68.3998 83.2074 69.1924 82.2288 69.1924H74.2767L72.5325 71.7276L70.31 74.9575C68.9966 76.8657 66.8299 78.0048 64.5128 78.0048H19.4873C17.1701 78.0048 15.0034 76.8657 13.6902 74.9575L11.4676 71.7276L9.72349 69.1924H1.77138C0.79275 69.1925 0 68.3998 0 67.4212V65.0787C0 64.1 0.79275 63.3074 1.77122 63.3074H82.2286C83.2074 63.3074 84 64.1 84 65.0787Z" fill="#DEECF1"/>
<path d="M82.2282 63.3071H73.2212C74.1998 63.3071 74.9932 64.1005 74.9932 65.079V67.4205C74.9932 68.399 74.2001 69.1922 73.2216 69.1924H9.72339L11.4675 71.7276H61.4679C62.3391 71.7276 62.8529 72.705 62.3589 73.4226L61.3028 74.957C59.9898 76.8648 57.8221 78.0043 55.5062 78.0043H64.513C66.829 78.0043 68.9967 76.8648 70.3097 74.957L72.5323 71.7276L72.5692 71.674L74.2771 69.1924H82.2282C83.2068 69.1924 84.0001 68.399 84.0001 67.4205V65.079C84.0001 64.1004 83.2067 63.3071 82.2282 63.3071Z" fill="#CBE5E8"/>
</g>
<defs>
<clipPath id="clip0_13_456">
<rect width="84" height="84" fill="white"/>
</clipPath>
</defs>
</svg>
